<?xml version="1.0" standalone="no"?>
<!DOCTYPE svg PUBLIC "-//W3C//DTD SVG 20010904//EN"
 "http://www.w3.org/TR/2001/REC-SVG-20010904/DTD/svg10.dtd">
<svg version="1.0" xmlns="http://www.w3.org/2000/svg"
 width="512.000000pt" height="512.000000pt" viewBox="0 0 512.000000 512.000000"
 preserveAspectRatio="xMidYMid meet">

<g transform="translate(0.000000,512.000000) scale(0.100000,-0.100000)"
fill="#000000" stroke="none">
<path d="M2525 4619 c-66 -43 -241 -133 -376 -193 -322 -143 -692 -241 -1096
-291 -64 -8 -118 -17 -121 -20 -11 -11 -23 -480 -18 -700 16 -683 130 -1199
372 -1675 212 -420 530 -787 938 -1085 127 -92 322 -215 342 -215 24 0 240
139 385 247 269 202 474 409 660 668 455 632 636 1369 603 2457 -5 163 -12
299 -15 302 -3 3 -59 13 -125 21 -366 47 -740 142 -1014 257 -113 48 -352 166
-431 214 -31 19 -61 34 -65 33 -5 0 -22 -9 -39 -20z m85 -154 c22 -14 93 -52
157 -84 356 -178 737 -297 1158 -361 77 -11 144 -25 149 -30 5 -5 9 -190 9
-412 1 -355 -1 -426 -21 -598 -45 -389 -104 -639 -222 -940 -184 -466 -463
-841 -871 -1172 -103 -83 -386 -278 -404 -278 -13 0 -244 155 -339 228 -205
155 -432 381 -567 562 -205 275 -373 617 -473 967 -108 375 -160 900 -140
1413 l9 235 45 8 c25 4 112 19 194 32 279 47 570 129 818 230 112 46 350 162
418 203 19 12 36 22 38 22 1 0 20 -11 42 -25z"/>
<path d="M2435 4244 c-304 -161 -630 -271 -1045 -353 l-185 -37 -8 -124 c-4
-69 -5 -224 -3 -345 14 -565 119 -1060 307 -1455 168 -352 390 -639 686 -885
97 -80 302 -229 369 -268 12 -7 157 86 272 175 361 278 592 556 782 943 121
247 187 444 249 746 65 316 96 790 75 1120 l-7 96 -121 22 c-438 83 -757 187
-1086 353 -85 43 -157 78 -160 77 -3 -1 -59 -30 -125 -65z m295 -126 c288
-141 655 -262 980 -323 125 -23 120 -20 120 -71 l0 -44 -374 0 -374 0 -54 59
c-64 69 -86 76 -199 66 l-79 -7 0 -34 0 -34 94 0 94 0 52 -60 52 -60 400 0
399 0 -3 -42 -3 -43 -440 -3 c-242 -1 -455 -2 -472 -2 -61 0 -73 -25 -73 -146
0 -97 -2 -106 -17 -99 -36 13 -179 45 -205 45 l-28 0 0 130 0 130 -38 0 -39 0
5 -125 c4 -100 2 -125 -9 -129 -8 -2 -57 -13 -109 -24 l-95 -21 -24 27 c-13
15 -60 69 -105 119 -81 92 -81 93 -128 93 l-48 0 0 218 0 218 58 18 c79 25
320 130 417 182 44 24 82 42 85 40 3 -1 75 -36 160 -78z m-800 -398 l0 -200
-162 0 -163 0 -62 -61 -63 -61 -6 -78 -7 -78 -61 -7 c-62 -6 -95 0 -108 19 -9
13 -10 321 -1 433 l6 82 56 11 c31 6 106 23 166 36 61 14 125 28 143 31 l32 6
0 -122 0 -122 38 3 37 3 3 132 3 132 57 19 c100 35 92 50 92 -178z m206 -347
c37 -43 76 -87 86 -99 18 -21 18 -21 -39 -57 -32 -19 -84 -58 -116 -86 l-58
-51 -93 0 c-58 0 -96 4 -104 12 -8 8 -12 47 -12 110 l0 98 -35 0 -35 0 0 -114
0 -114 40 -36 c37 -34 44 -36 105 -36 36 0 65 -3 65 -6 0 -4 -9 -22 -21 -40
l-21 -34 -174 0 -174 0 0 222 0 222 42 43 42 43 217 0 217 0 68 -77z m1702 35
c-2 -35 -7 -43 -23 -44 -11 0 -153 -1 -316 -2 l-297 -2 -78 -94 c-44 -52 -84
-95 -90 -95 -7 -1 -34 14 -62 32 l-51 32 0 101 c-1 55 2 104 6 107 3 4 211 7
460 7 l454 0 -3 -42z m-6 -183 c-1 -33 -5 -77 -8 -97 l-6 -38 -242 0 -242 0
-59 -67 -59 -66 -21 28 c-11 15 -39 50 -62 78 l-42 49 77 89 76 89 296 -2 295
-3 -3 -60z m-1322 -18 c0 -1 -33 -36 -73 -77 -46 -48 -86 -102 -110 -147 -21
-40 -40 -73 -43 -73 -18 0 -143 92 -157 116 -10 17 83 86 170 125 75 35 213
71 213 56z m197 -13 c86 -20 200 -77 260 -129 l46 -40 -54 -41 c-68 -51 -102
-74 -110 -74 -4 0 -19 24 -34 53 -37 71 -99 150 -159 203 -57 49 -52 52 51 28z
m-1229 -254 l-3 -220 37 0 37 0 3 63 3 62 140 3 c77 1 145 0 152 -2 9 -4 7
-20 -8 -64 -11 -33 -26 -95 -32 -138 l-12 -79 -48 -3 c-48 -3 -48 -4 -45 -35
3 -30 5 -32 49 -35 l47 -3 7 -57 c9 -76 40 -173 81 -254 19 -37 34 -71 34 -75
0 -5 -86 -9 -190 -11 l-190 -3 -20 46 c-29 69 -103 305 -97 311 3 3 17 -2 31
-11 69 -45 156 1 156 82 0 24 -7 54 -16 68 -38 59 -136 48 -171 -19 -13 -26
-16 -27 -25 -12 -17 30 -56 237 -72 381 -24 213 -24 213 -18 219 3 3 43 6 89
6 l84 0 -3 -220z m1052 97 c0 -34 -3 -92 -6 -129 l-7 -67 -31 5 c-55 9 -116
27 -121 35 -14 21 137 235 156 223 5 -3 9 -33 9 -67z m121 31 c43 -46 109
-155 109 -180 0 -15 -43 -31 -117 -43 l-43 -7 0 136 c0 75 3 136 6 136 3 0 24
-19 45 -42z m1157 -100 l-3 -43 -215 -3 -215 -2 -46 -46 c-45 -44 -48 -45 -58
-26 -18 33 -14 44 40 105 l51 57 224 0 225 0 -3 -42z m-1586 -116 c22 -10 36
-22 33 -30 -6 -18 -33 -159 -40 -214 l-6 -48 -145 0 c-123 0 -146 2 -151 16
-18 48 60 279 123 361 l25 32 62 -50 c34 -27 79 -57 99 -67z m877 73 c61 -85
121 -254 121 -339 l0 -26 -149 0 c-164 0 -161 -1 -161 65 0 29 -17 124 -35
190 -4 16 6 27 54 54 33 18 74 49 92 67 18 19 36 34 39 34 4 0 21 -20 39 -45z
m691 -94 c0 -20 -37 -222 -46 -253 -5 -16 -24 -18 -209 -18 l-203 0 -7 68 c-3
37 -9 77 -12 89 -4 17 8 36 47 78 l53 55 188 0 c181 0 189 -1 189 -19z m-1350
-53 c36 -6 70 -12 76 -13 6 -2 10 -40 10 -101 l-1 -99 -115 0 -115 0 3 45 c1
25 9 78 18 118 15 68 17 73 37 67 12 -3 51 -11 87 -17z m364 -5 c17 -58 36
-197 28 -205 -5 -5 -58 -7 -118 -6 l-109 3 0 100 0 100 70 11 c105 17 123 16
129 -3z m-585 -360 c7 -43 19 -99 26 -126 l14 -47 -48 -24 c-26 -14 -71 -43
-100 -66 -29 -23 -54 -40 -55 -38 -63 82 -107 175 -130 275 -25 112 -37 103
133 103 l148 0 12 -77z m307 66 c3 -6 3 -49 -1 -95 l-7 -84 -31 0 c-18 0 -59
-7 -92 -15 -33 -7 -63 -11 -66 -7 -8 8 -39 164 -39 192 0 19 7 20 114 20 72 0
117 -4 122 -11z m314 4 c0 -19 -20 -124 -30 -163 -11 -42 -11 -42 -48 -35 -20
4 -64 10 -97 14 l-60 6 -3 79 c-2 44 -1 85 2 93 4 10 34 13 121 13 63 0 115
-3 115 -7z m380 -16 c0 -75 -60 -234 -122 -325 l-29 -43 -28 30 c-24 25 -137
104 -161 113 -6 2 -4 23 4 49 8 26 17 73 21 105 12 102 -3 94 166 94 l149 0 0
-23z m496 -4 c-3 -16 -18 -69 -34 -120 l-27 -92 -183 -3 c-101 -2 -186 0 -187
3 -2 3 4 32 14 65 11 33 22 85 26 117 l7 57 195 0 195 0 -6 -27z m-1193 -295
c0 -29 -2 -83 -2 -120 -1 -38 -4 -68 -8 -68 -20 2 -153 186 -153 212 0 11 143
40 160 32 3 -1 4 -26 3 -56z m212 43 c22 -6 29 -13 27 -27 -6 -28 -85 -145
-126 -183 l-36 -35 0 125 c0 69 2 128 5 131 7 6 86 -1 130 -11z m241 -128 l37
-33 -23 -25 c-80 -85 -277 -167 -373 -156 -5 1 10 17 33 36 59 49 122 129 160
203 l32 62 49 -26 c26 -15 65 -42 85 -61z m644 78 c0 -5 -7 -25 -15 -45 l-15
-36 -155 0 c-85 0 -155 -4 -155 -9 0 -4 5 -22 11 -40 l11 -31 125 0 c115 0
125 -1 119 -17 -11 -29 -148 -275 -151 -271 -2 2 -8 83 -15 221 0 4 -16 7 -35
7 l-35 0 0 -125 0 -125 -178 0 -179 0 3 -137 c2 -76 1 -146 -2 -155 -4 -13
-16 -18 -45 -18 l-39 0 0 218 0 218 38 18 c106 51 229 164 298 276 l37 60 188
0 c104 0 189 -4 189 -9z m-1283 -83 c28 -46 80 -111 116 -145 l65 -63 -37 0
c-47 0 -131 25 -196 58 -55 27 -165 108 -165 121 0 16 133 111 156 111 6 0 34
-37 61 -82z m-314 -96 l27 -28 0 -263 0 -264 63 -58 62 -59 103 0 102 0 0 35
0 35 -87 0 c-87 0 -87 0 -125 37 l-38 37 0 219 0 219 33 -21 c94 -62 201 -101
320 -116 l47 -6 0 -105 0 -104 35 0 35 0 0 105 0 104 38 6 c20 3 59 10 85 15
27 6 53 10 58 10 6 0 8 -78 7 -197 -3 -190 -4 -198 -23 -198 -16 0 -21 -8 -23
-37 -3 -32 0 -37 20 -40 22 -3 23 -6 26 -130 l3 -127 -75 -56 c-107 -79 -142
-98 -166 -90 -26 8 -254 179 -345 258 -202 177 -390 405 -520 630 l-27 47 156
0 156 0 0 40 0 40 -178 0 -178 0 -22 45 -22 45 213 0 213 0 27 -28z m1307
-371 c0 -35 -378 -448 -440 -481 -19 -10 -20 -7 -20 85 l0 95 47 0 c39 0 52 5
80 32 l33 32 0 116 c0 64 3 120 7 124 9 9 293 6 293 -3z"/>
<path d="M2513 3861 c-68 -43 -62 -153 10 -187 41 -20 75 -14 114 20 24 21 28
32 28 75 0 41 -5 55 -26 76 -35 35 -85 41 -126 16z"/>
<path d="M2145 3730 l-79 -79 24 -26 24 -26 66 66 66 65 67 0 67 0 0 40 0 40
-78 0 -77 0 -80 -80z"/>
<path d="M2523 1446 c-67 -30 -81 -125 -26 -180 52 -52 151 -24 169 48 23 93
-59 169 -143 132z"/>
</g>
</svg>
